<?xml version="1.0" encoding="UTF-8" standalone="no"?>
<!DOCTYPE svg PUBLIC "-//W3C//DTD SVG 1.1//EN"
 "http://www.w3.org/Graphics/SVG/1.1/DTD/svg11.dtd">
<!-- Generated by graphviz version 2.47.0 (20210316.0004)
 -->
<!-- Title: dependencies Pages: 1 -->
<svg width="504pt" height="211pt"
 viewBox="0.00 0.00 504.00 211.00" xmlns="http://www.w3.org/2000/svg" xmlns:xlink="http://www.w3.org/1999/xlink">
<g id="graph0" class="graph" transform="scale(1 1) rotate(0) translate(4 207)">
<title>dependencies</title>
<polygon fill="white" stroke="transparent" points="-4,4 -4,-207 500,-207 500,4 -4,4"/>
<text text-anchor="start" x="227.01" y="-42.4" font-family="Times-12" font-weight="bold" font-size="14.00">Legend</text>
<polygon fill="#ffffb3" stroke="transparent" points="14,-10 14,-30 34,-30 34,-10 14,-10"/>
<text text-anchor="start" x="37.63" y="-15.4" font-family="Times-12" font-size="14.00"> &#160;Declarations</text>
<polygon fill="#8dd3c7" stroke="transparent" points="127,-10 127,-30 147,-30 147,-10 127,-10"/>
<text text-anchor="start" x="150.73" y="-15.4" font-family="Times-12" font-size="14.00"> &#160;Module</text>
<polygon fill="#80b1d3" stroke="transparent" points="213,-10 213,-30 233,-30 233,-10 213,-10"/>
<text text-anchor="start" x="236.78" y="-15.4" font-family="Times-12" font-size="14.00"> &#160;Bootstrap</text>
<polygon fill="#fdb462" stroke="transparent" points="310,-10 310,-30 330,-30 330,-10 310,-10"/>
<text text-anchor="start" x="333.67" y="-15.4" font-family="Times-12" font-size="14.00"> &#160;Providers</text>
<polygon fill="#fb8072" stroke="transparent" points="406,-10 406,-30 426,-30 426,-10 406,-10"/>
<text text-anchor="start" x="429.73" y="-15.4" font-family="Times-12" font-size="14.00"> &#160;Exports</text>
<g id="clust1" class="cluster">
<title>cluster_MessengerModule</title>
<polygon fill="none" stroke="black" stroke-dasharray="1,5" points="19,-70 19,-195 477,-195 477,-70 19,-70"/>
</g>
<g id="clust3" class="cluster">
<title>cluster_MessengerModule_imports</title>
<polygon fill="none" stroke="black" points="367,-78 367,-130 469,-130 469,-78 367,-78"/>
</g>
<g id="clust6" class="cluster">
<title>cluster_MessengerModule_providers</title>
<polygon fill="none" stroke="black" points="27,-78 27,-130 359,-130 359,-78 27,-78"/>
</g>
<!-- FilerModule -->
<g id="node1" class="node">
<title>FilerModule</title>
<polygon fill="#8dd3c7" stroke="black" points="460.99,-122 457.99,-126 436.99,-126 433.99,-122 375.01,-122 375.01,-86 460.99,-86 460.99,-122"/>
<text text-anchor="middle" x="418" y="-99.8" font-family="Times,serif" font-size="14.00">FilerModule</text>
</g>
<!-- MessengerModule -->
<g id="node2" class="node">
<title>MessengerModule</title>
<polygon fill="#8dd3c7" stroke="black" points="329.19,-187 326.19,-191 305.19,-191 302.19,-187 208.81,-187 208.81,-151 329.19,-151 329.19,-187"/>
<text text-anchor="middle" x="269" y="-164.8" font-family="Times,serif" font-size="14.00">MessengerModule</text>
</g>
<!-- FilerModule&#45;&gt;MessengerModule -->
<g id="edge1" class="edge">
<title>FilerModule&#45;&gt;MessengerModule</title>
<path fill="none" stroke="black" d="M418,-122.11C418,-141.34 418,-169 418,-169 418,-169 339.17,-169 339.17,-169"/>
<polygon fill="black" stroke="black" points="339.17,-165.5 329.17,-169 339.17,-172.5 339.17,-165.5"/>
</g>
<!-- MessengerService -->
<g id="node3" class="node">
<title>MessengerService</title>
<ellipse fill="#fdb462" stroke="black" cx="269" cy="-104" rx="81.64" ry="18"/>
<text text-anchor="middle" x="269" y="-99.8" font-family="Times,serif" font-size="14.00">MessengerService</text>
</g>
<!-- MessengerService&#45;&gt;MessengerModule -->
<g id="edge2" class="edge">
<title>MessengerService&#45;&gt;MessengerModule</title>
<path fill="none" stroke="black" d="M269,-122.11C269,-122.11 269,-140.99 269,-140.99"/>
<polygon fill="black" stroke="black" points="265.5,-140.99 269,-150.99 272.5,-140.99 265.5,-140.99"/>
</g>
<!-- PrismaService -->
<g id="node4" class="node">
<title>PrismaService</title>
<ellipse fill="#fdb462" stroke="black" cx="102" cy="-104" rx="66.63" ry="18"/>
<text text-anchor="middle" x="102" y="-99.8" font-family="Times,serif" font-size="14.00">PrismaService</text>
</g>
<!-- PrismaService&#45;&gt;MessengerModule -->
<g id="edge3" class="edge">
<title>PrismaService&#45;&gt;MessengerModule</title>
<path fill="none" stroke="black" d="M102,-122.11C102,-141.34 102,-169 102,-169 102,-169 198.71,-169 198.71,-169"/>
<polygon fill="black" stroke="black" points="198.71,-172.5 208.71,-169 198.71,-165.5 198.71,-172.5"/>
</g>
</g>
</svg>
