<?xml version="1.0" encoding="UTF-8" standalone="no"?>
<!DOCTYPE svg PUBLIC "-//W3C//DTD SVG 1.1//EN"
 "http://www.w3.org/Graphics/SVG/1.1/DTD/svg11.dtd">
<!-- Generated by graphviz version 2.47.0 (20210316.0004)
 -->
<!-- Title: dependencies Pages: 1 -->
<svg width="504pt" height="211pt"
 viewBox="0.00 0.00 504.00 211.00" xmlns="http://www.w3.org/2000/svg" xmlns:xlink="http://www.w3.org/1999/xlink">
<g id="graph0" class="graph" transform="scale(1 1) rotate(0) translate(4 207)">
<title>dependencies</title>
<polygon fill="white" stroke="transparent" points="-4,4 -4,-207 500,-207 500,4 -4,4"/>
<text text-anchor="start" x="227.01" y="-42.4" font-family="Times-12" font-weight="bold" font-size="14.00">Legend</text>
<polygon fill="#ffffb3" stroke="transparent" points="14,-10 14,-30 34,-30 34,-10 14,-10"/>
<text text-anchor="start" x="37.63" y="-15.4" font-family="Times-12" font-size="14.00"> &#160;Declarations</text>
<polygon fill="#8dd3c7" stroke="transparent" points="127,-10 127,-30 147,-30 147,-10 127,-10"/>
<text text-anchor="start" x="150.73" y="-15.4" font-family="Times-12" font-size="14.00"> &#160;Module</text>
<polygon fill="#80b1d3" stroke="transparent" points="213,-10 213,-30 233,-30 233,-10 213,-10"/>
<text text-anchor="start" x="236.78" y="-15.4" font-family="Times-12" font-size="14.00"> &#160;Bootstrap</text>
<polygon fill="#fdb462" stroke="transparent" points="310,-10 310,-30 330,-30 330,-10 310,-10"/>
<text text-anchor="start" x="333.67" y="-15.4" font-family="Times-12" font-size="14.00"> &#160;Providers</text>
<polygon fill="#fb8072" stroke="transparent" points="406,-10 406,-30 426,-30 426,-10 406,-10"/>
<text text-anchor="start" x="429.73" y="-15.4" font-family="Times-12" font-size="14.00"> &#160;Exports</text>
<g id="clust1" class="cluster">
<title>cluster_ResumesModule</title>
<polygon fill="none" stroke="black" stroke-dasharray="1,5" points="26,-70 26,-195 470,-195 470,-70 26,-70"/>
</g>
<g id="clust3" class="cluster">
<title>cluster_ResumesModule_imports</title>
<polygon fill="none" stroke="black" points="360,-78 360,-130 462,-130 462,-78 360,-78"/>
</g>
<g id="clust6" class="cluster">
<title>cluster_ResumesModule_providers</title>
<polygon fill="none" stroke="black" points="34,-78 34,-130 352,-130 352,-78 34,-78"/>
</g>
<!-- FilerModule -->
<g id="node1" class="node">
<title>FilerModule</title>
<polygon fill="#8dd3c7" stroke="black" points="453.99,-122 450.99,-126 429.99,-126 426.99,-122 368.01,-122 368.01,-86 453.99,-86 453.99,-122"/>
<text text-anchor="middle" x="411" y="-99.8" font-family="Times,serif" font-size="14.00">FilerModule</text>
</g>
<!-- ResumesModule -->
<g id="node2" class="node">
<title>ResumesModule</title>
<polygon fill="#8dd3c7" stroke="black" points="332.1,-187 329.1,-191 308.1,-191 305.1,-187 221.9,-187 221.9,-151 332.1,-151 332.1,-187"/>
<text text-anchor="middle" x="277" y="-164.8" font-family="Times,serif" font-size="14.00">ResumesModule</text>
</g>
<!-- FilerModule&#45;&gt;ResumesModule -->
<g id="edge1" class="edge">
<title>FilerModule&#45;&gt;ResumesModule</title>
<path fill="none" stroke="black" d="M411,-122.11C411,-141.34 411,-169 411,-169 411,-169 342.28,-169 342.28,-169"/>
<polygon fill="black" stroke="black" points="342.28,-165.5 332.28,-169 342.28,-172.5 342.28,-165.5"/>
</g>
<!-- PrismaService -->
<g id="node3" class="node">
<title>PrismaService</title>
<ellipse fill="#fdb462" stroke="black" cx="277" cy="-104" rx="66.63" ry="18"/>
<text text-anchor="middle" x="277" y="-99.8" font-family="Times,serif" font-size="14.00">PrismaService</text>
</g>
<!-- PrismaService&#45;&gt;ResumesModule -->
<g id="edge2" class="edge">
<title>PrismaService&#45;&gt;ResumesModule</title>
<path fill="none" stroke="black" d="M277,-122.11C277,-122.11 277,-140.99 277,-140.99"/>
<polygon fill="black" stroke="black" points="273.5,-140.99 277,-150.99 280.5,-140.99 273.5,-140.99"/>
</g>
<!-- ResumesService -->
<g id="node4" class="node">
<title>ResumesService</title>
<ellipse fill="#fdb462" stroke="black" cx="117" cy="-104" rx="74.71" ry="18"/>
<text text-anchor="middle" x="117" y="-99.8" font-family="Times,serif" font-size="14.00">ResumesService</text>
</g>
<!-- ResumesService&#45;&gt;ResumesModule -->
<g id="edge3" class="edge">
<title>ResumesService&#45;&gt;ResumesModule</title>
<path fill="none" stroke="black" d="M117,-122.11C117,-141.34 117,-169 117,-169 117,-169 211.94,-169 211.94,-169"/>
<polygon fill="black" stroke="black" points="211.94,-172.5 221.94,-169 211.94,-165.5 211.94,-172.5"/>
</g>
</g>
</svg>
