<?xml version="1.0" encoding="UTF-8" standalone="no"?>
<!DOCTYPE svg PUBLIC "-//W3C//DTD SVG 1.1//EN"
 "http://www.w3.org/Graphics/SVG/1.1/DTD/svg11.dtd">
<!-- Generated by graphviz version 2.47.0 (20210316.0004)
 -->
<!-- Title: dependencies Pages: 1 -->
<svg width="585pt" height="211pt"
 viewBox="0.00 0.00 585.00 211.00" xmlns="http://www.w3.org/2000/svg" xmlns:xlink="http://www.w3.org/1999/xlink">
<g id="graph0" class="graph" transform="scale(1 1) rotate(0) translate(4 207)">
<title>dependencies</title>
<polygon fill="white" stroke="transparent" points="-4,4 -4,-207 581,-207 581,4 -4,4"/>
<text text-anchor="start" x="267.51" y="-42.4" font-family="Times-12" font-weight="bold" font-size="14.00">Legend</text>
<polygon fill="#ffffb3" stroke="transparent" points="54.5,-10 54.5,-30 74.5,-30 74.5,-10 54.5,-10"/>
<text text-anchor="start" x="78.13" y="-15.4" font-family="Times-12" font-size="14.00"> &#160;Declarations</text>
<polygon fill="#8dd3c7" stroke="transparent" points="167.5,-10 167.5,-30 187.5,-30 187.5,-10 167.5,-10"/>
<text text-anchor="start" x="191.23" y="-15.4" font-family="Times-12" font-size="14.00"> &#160;Module</text>
<polygon fill="#80b1d3" stroke="transparent" points="253.5,-10 253.5,-30 273.5,-30 273.5,-10 253.5,-10"/>
<text text-anchor="start" x="277.28" y="-15.4" font-family="Times-12" font-size="14.00"> &#160;Bootstrap</text>
<polygon fill="#fdb462" stroke="transparent" points="350.5,-10 350.5,-30 370.5,-30 370.5,-10 350.5,-10"/>
<text text-anchor="start" x="374.17" y="-15.4" font-family="Times-12" font-size="14.00"> &#160;Providers</text>
<polygon fill="#fb8072" stroke="transparent" points="446.5,-10 446.5,-30 466.5,-30 466.5,-10 446.5,-10"/>
<text text-anchor="start" x="470.23" y="-15.4" font-family="Times-12" font-size="14.00"> &#160;Exports</text>
<g id="clust1" class="cluster">
<title>cluster_PostModule</title>
<polygon fill="none" stroke="black" stroke-dasharray="1,5" points="8,-70 8,-195 569,-195 569,-70 8,-70"/>
</g>
<g id="clust6" class="cluster">
<title>cluster_PostModule_providers</title>
<polygon fill="none" stroke="black" points="126,-78 126,-130 561,-130 561,-78 126,-78"/>
</g>
<g id="clust3" class="cluster">
<title>cluster_PostModule_imports</title>
<polygon fill="none" stroke="black" points="16,-78 16,-130 118,-130 118,-78 16,-78"/>
</g>
<!-- FilerModule -->
<g id="node1" class="node">
<title>FilerModule</title>
<polygon fill="#8dd3c7" stroke="black" points="109.99,-122 106.99,-126 85.99,-126 82.99,-122 24.01,-122 24.01,-86 109.99,-86 109.99,-122"/>
<text text-anchor="middle" x="67" y="-99.8" font-family="Times,serif" font-size="14.00">FilerModule</text>
</g>
<!-- PostModule -->
<g id="node2" class="node">
<title>PostModule</title>
<polygon fill="#8dd3c7" stroke="black" points="312.67,-187 309.67,-191 288.67,-191 285.67,-187 229.33,-187 229.33,-151 312.67,-151 312.67,-187"/>
<text text-anchor="middle" x="271" y="-164.8" font-family="Times,serif" font-size="14.00">PostModule</text>
</g>
<!-- FilerModule&#45;&gt;PostModule -->
<g id="edge1" class="edge">
<title>FilerModule&#45;&gt;PostModule</title>
<path fill="none" stroke="black" d="M67,-122.11C67,-141.34 67,-169 67,-169 67,-169 219.23,-169 219.23,-169"/>
<polygon fill="black" stroke="black" points="219.23,-172.5 229.23,-169 219.23,-165.5 219.23,-172.5"/>
</g>
<!-- ImagesService -->
<g id="node3" class="node">
<title>ImagesService</title>
<ellipse fill="#fdb462" stroke="black" cx="485" cy="-104" rx="67.75" ry="18"/>
<text text-anchor="middle" x="485" y="-99.8" font-family="Times,serif" font-size="14.00">ImagesService</text>
</g>
<!-- ImagesService&#45;&gt;PostModule -->
<g id="edge2" class="edge">
<title>ImagesService&#45;&gt;PostModule</title>
<path fill="none" stroke="black" d="M485,-122.11C485,-141.34 485,-169 485,-169 485,-169 322.77,-169 322.77,-169"/>
<polygon fill="black" stroke="black" points="322.77,-165.5 312.77,-169 322.77,-172.5 322.77,-165.5"/>
</g>
<!-- PostService -->
<g id="node4" class="node">
<title>PostService</title>
<ellipse fill="#fdb462" stroke="black" cx="342" cy="-104" rx="56.76" ry="18"/>
<text text-anchor="middle" x="342" y="-99.8" font-family="Times,serif" font-size="14.00">PostService</text>
</g>
<!-- PostService&#45;&gt;PostModule -->
<g id="edge3" class="edge">
<title>PostService&#45;&gt;PostModule</title>
<path fill="none" stroke="black" d="M299.1,-115.92C299.1,-115.92 299.1,-140.77 299.1,-140.77"/>
<polygon fill="black" stroke="black" points="295.6,-140.77 299.1,-150.77 302.6,-140.77 295.6,-140.77"/>
</g>
<!-- PrismaService -->
<g id="node5" class="node">
<title>PrismaService</title>
<ellipse fill="#fdb462" stroke="black" cx="201" cy="-104" rx="66.63" ry="18"/>
<text text-anchor="middle" x="201" y="-99.8" font-family="Times,serif" font-size="14.00">PrismaService</text>
</g>
<!-- PrismaService&#45;&gt;PostModule -->
<g id="edge4" class="edge">
<title>PrismaService&#45;&gt;PostModule</title>
<path fill="none" stroke="black" d="M248.49,-116.84C248.49,-116.84 248.49,-140.52 248.49,-140.52"/>
<polygon fill="black" stroke="black" points="244.99,-140.52 248.49,-150.52 251.99,-140.52 244.99,-140.52"/>
</g>
</g>
</svg>
