<?xml version="1.0" encoding="UTF-8" standalone="no"?>
<!DOCTYPE svg PUBLIC "-//W3C//DTD SVG 1.1//EN"
 "http://www.w3.org/Graphics/SVG/1.1/DTD/svg11.dtd">
<!-- Generated by graphviz version 2.47.0 (20210316.0004)
 -->
<!-- Title: dependencies Pages: 1 -->
<svg width="1671pt" height="211pt"
 viewBox="0.00 0.00 1671.00 211.00" xmlns="http://www.w3.org/2000/svg" xmlns:xlink="http://www.w3.org/1999/xlink">
<g id="graph0" class="graph" transform="scale(1 1) rotate(0) translate(4 207)">
<title>dependencies</title>
<polygon fill="white" stroke="transparent" points="-4,4 -4,-207 1667,-207 1667,4 -4,4"/>
<text text-anchor="start" x="810.51" y="-42.4" font-family="Times-12" font-weight="bold" font-size="14.00">Legend</text>
<polygon fill="#ffffb3" stroke="transparent" points="597.5,-10 597.5,-30 617.5,-30 617.5,-10 597.5,-10"/>
<text text-anchor="start" x="621.13" y="-15.4" font-family="Times-12" font-size="14.00"> &#160;Declarations</text>
<polygon fill="#8dd3c7" stroke="transparent" points="710.5,-10 710.5,-30 730.5,-30 730.5,-10 710.5,-10"/>
<text text-anchor="start" x="734.23" y="-15.4" font-family="Times-12" font-size="14.00"> &#160;Module</text>
<polygon fill="#80b1d3" stroke="transparent" points="796.5,-10 796.5,-30 816.5,-30 816.5,-10 796.5,-10"/>
<text text-anchor="start" x="820.28" y="-15.4" font-family="Times-12" font-size="14.00"> &#160;Bootstrap</text>
<polygon fill="#fdb462" stroke="transparent" points="893.5,-10 893.5,-30 913.5,-30 913.5,-10 893.5,-10"/>
<text text-anchor="start" x="917.17" y="-15.4" font-family="Times-12" font-size="14.00"> &#160;Providers</text>
<polygon fill="#fb8072" stroke="transparent" points="989.5,-10 989.5,-30 1009.5,-30 1009.5,-10 989.5,-10"/>
<text text-anchor="start" x="1013.23" y="-15.4" font-family="Times-12" font-size="14.00"> &#160;Exports</text>
<g id="clust1" class="cluster">
<title>cluster_AppModule</title>
<polygon fill="none" stroke="black" stroke-dasharray="1,5" points="8,-70 8,-195 1655,-195 1655,-70 8,-70"/>
</g>
<g id="clust3" class="cluster">
<title>cluster_AppModule_imports</title>
<polygon fill="none" stroke="black" points="305,-78 305,-130 1647,-130 1647,-78 305,-78"/>
</g>
<g id="clust6" class="cluster">
<title>cluster_AppModule_providers</title>
<polygon fill="none" stroke="black" points="16,-78 16,-130 297,-130 297,-78 16,-78"/>
</g>
<!-- ActivitiesModule -->
<g id="node1" class="node">
<title>ActivitiesModule</title>
<polygon fill="#8dd3c7" stroke="black" points="1638.98,-122 1635.98,-126 1614.98,-126 1611.98,-122 1525.02,-122 1525.02,-86 1638.98,-86 1638.98,-122"/>
<text text-anchor="middle" x="1582" y="-99.8" font-family="Times,serif" font-size="14.00">ActivitiesModule</text>
</g>
<!-- AppModule -->
<g id="node12" class="node">
<title>AppModule</title>
<polygon fill="#8dd3c7" stroke="black" points="892.66,-187 889.66,-191 868.66,-191 865.66,-187 809.34,-187 809.34,-151 892.66,-151 892.66,-187"/>
<text text-anchor="middle" x="851" y="-164.8" font-family="Times,serif" font-size="14.00">AppModule</text>
</g>
<!-- ActivitiesModule&#45;&gt;AppModule -->
<g id="edge1" class="edge">
<title>ActivitiesModule&#45;&gt;AppModule</title>
<path fill="none" stroke="black" d="M1582,-122.09C1582,-145.13 1582,-182 1582,-182 1582,-182 902.66,-182 902.66,-182"/>
<polygon fill="black" stroke="black" points="902.66,-178.5 892.66,-182 902.66,-185.5 902.66,-178.5"/>
</g>
<!-- AuthModule -->
<g id="node2" class="node">
<title>AuthModule</title>
<polygon fill="#8dd3c7" stroke="black" points="1506.55,-122 1503.55,-126 1482.55,-126 1479.55,-122 1419.45,-122 1419.45,-86 1506.55,-86 1506.55,-122"/>
<text text-anchor="middle" x="1463" y="-99.8" font-family="Times,serif" font-size="14.00">AuthModule</text>
</g>
<!-- AuthModule&#45;&gt;AppModule -->
<g id="edge2" class="edge">
<title>AuthModule&#45;&gt;AppModule</title>
<path fill="none" stroke="black" d="M1463,-122.04C1463,-143.66 1463,-177 1463,-177 1463,-177 903.07,-177 903.07,-177"/>
<polygon fill="black" stroke="black" points="903.07,-173.5 893.07,-177 903.07,-180.5 903.07,-173.5"/>
</g>
<!-- FilerModule -->
<g id="node3" class="node">
<title>FilerModule</title>
<polygon fill="#8dd3c7" stroke="black" points="1400.99,-122 1397.99,-126 1376.99,-126 1373.99,-122 1315.01,-122 1315.01,-86 1400.99,-86 1400.99,-122"/>
<text text-anchor="middle" x="1358" y="-99.8" font-family="Times,serif" font-size="14.00">FilerModule</text>
</g>
<!-- FilerModule&#45;&gt;AppModule -->
<g id="edge3" class="edge">
<title>FilerModule&#45;&gt;AppModule</title>
<path fill="none" stroke="black" d="M1358,-122.22C1358,-142.37 1358,-172 1358,-172 1358,-172 902.92,-172 902.92,-172"/>
<polygon fill="black" stroke="black" points="902.92,-168.5 892.92,-172 902.92,-175.5 902.92,-168.5"/>
</g>
<!-- HealthCheckModule -->
<g id="node4" class="node">
<title>HealthCheckModule</title>
<polygon fill="#8dd3c7" stroke="black" points="1297.13,-122 1294.13,-126 1273.13,-126 1270.13,-122 1164.87,-122 1164.87,-86 1297.13,-86 1297.13,-122"/>
<text text-anchor="middle" x="1231" y="-99.8" font-family="Times,serif" font-size="14.00">HealthCheckModule</text>
</g>
<!-- HealthCheckModule&#45;&gt;AppModule -->
<g id="edge4" class="edge">
<title>HealthCheckModule&#45;&gt;AppModule</title>
<path fill="none" stroke="black" d="M1231,-122.22C1231,-140.83 1231,-167 1231,-167 1231,-167 902.75,-167 902.75,-167"/>
<polygon fill="black" stroke="black" points="902.75,-163.5 892.75,-167 902.75,-170.5 902.75,-163.5"/>
</g>
<!-- ImagesModule -->
<g id="node5" class="node">
<title>ImagesModule</title>
<polygon fill="#8dd3c7" stroke="black" points="1146.97,-122 1143.97,-126 1122.97,-126 1119.97,-122 1047.03,-122 1047.03,-86 1146.97,-86 1146.97,-122"/>
<text text-anchor="middle" x="1097" y="-99.8" font-family="Times,serif" font-size="14.00">ImagesModule</text>
</g>
<!-- ImagesModule&#45;&gt;AppModule -->
<g id="edge5" class="edge">
<title>ImagesModule&#45;&gt;AppModule</title>
<path fill="none" stroke="black" d="M1097,-122.03C1097,-139.06 1097,-162 1097,-162 1097,-162 902.73,-162 902.73,-162"/>
<polygon fill="black" stroke="black" points="902.73,-158.5 892.73,-162 902.73,-165.5 902.73,-158.5"/>
</g>
<!-- MailjetModule -->
<g id="node6" class="node">
<title>MailjetModule</title>
<polygon fill="#8dd3c7" stroke="black" points="1028.99,-122 1025.99,-126 1004.99,-126 1001.99,-122 929.01,-122 929.01,-86 1028.99,-86 1028.99,-122"/>
<text text-anchor="middle" x="979" y="-99.8" font-family="Times,serif" font-size="14.00">MailjetModule</text>
</g>
<!-- MailjetModule&#45;&gt;AppModule -->
<g id="edge6" class="edge">
<title>MailjetModule&#45;&gt;AppModule</title>
<path fill="none" stroke="black" d="M979,-122.24C979,-137.57 979,-157 979,-157 979,-157 902.91,-157 902.91,-157"/>
<polygon fill="black" stroke="black" points="902.91,-153.5 892.91,-157 902.91,-160.5 902.91,-153.5"/>
</g>
<!-- MessengerModule -->
<g id="node7" class="node">
<title>MessengerModule</title>
<polygon fill="#8dd3c7" stroke="black" points="911.19,-122 908.19,-126 887.19,-126 884.19,-122 790.81,-122 790.81,-86 911.19,-86 911.19,-122"/>
<text text-anchor="middle" x="851" y="-99.8" font-family="Times,serif" font-size="14.00">MessengerModule</text>
</g>
<!-- MessengerModule&#45;&gt;AppModule -->
<g id="edge7" class="edge">
<title>MessengerModule&#45;&gt;AppModule</title>
<path fill="none" stroke="black" d="M851,-122.11C851,-122.11 851,-140.99 851,-140.99"/>
<polygon fill="black" stroke="black" points="847.5,-140.99 851,-150.99 854.5,-140.99 847.5,-140.99"/>
</g>
<!-- PayementModule -->
<g id="node8" class="node">
<title>PayementModule</title>
<polygon fill="#8dd3c7" stroke="black" points="773.26,-122 770.26,-126 749.26,-126 746.26,-122 658.74,-122 658.74,-86 773.26,-86 773.26,-122"/>
<text text-anchor="middle" x="716" y="-99.8" font-family="Times,serif" font-size="14.00">PayementModule</text>
</g>
<!-- PayementModule&#45;&gt;AppModule -->
<g id="edge8" class="edge">
<title>PayementModule&#45;&gt;AppModule</title>
<path fill="none" stroke="black" d="M716,-122.24C716,-137.57 716,-157 716,-157 716,-157 799.03,-157 799.03,-157"/>
<polygon fill="black" stroke="black" points="799.03,-160.5 809.03,-157 799.03,-153.5 799.03,-160.5"/>
</g>
<!-- PostModule -->
<g id="node9" class="node">
<title>PostModule</title>
<polygon fill="#8dd3c7" stroke="black" points="640.67,-122 637.67,-126 616.67,-126 613.67,-122 557.33,-122 557.33,-86 640.67,-86 640.67,-122"/>
<text text-anchor="middle" x="599" y="-99.8" font-family="Times,serif" font-size="14.00">PostModule</text>
</g>
<!-- PostModule&#45;&gt;AppModule -->
<g id="edge9" class="edge">
<title>PostModule&#45;&gt;AppModule</title>
<path fill="none" stroke="black" d="M599,-122.03C599,-139.06 599,-162 599,-162 599,-162 799.1,-162 799.1,-162"/>
<polygon fill="black" stroke="black" points="799.1,-165.5 809.1,-162 799.1,-158.5 799.1,-165.5"/>
</g>
<!-- ProfileModule -->
<g id="node10" class="node">
<title>ProfileModule</title>
<polygon fill="#8dd3c7" stroke="black" points="538.65,-122 535.65,-126 514.65,-126 511.65,-122 441.35,-122 441.35,-86 538.65,-86 538.65,-122"/>
<text text-anchor="middle" x="490" y="-99.8" font-family="Times,serif" font-size="14.00">ProfileModule</text>
</g>
<!-- ProfileModule&#45;&gt;AppModule -->
<g id="edge10" class="edge">
<title>ProfileModule&#45;&gt;AppModule</title>
<path fill="none" stroke="black" d="M490,-122.22C490,-140.83 490,-167 490,-167 490,-167 799.24,-167 799.24,-167"/>
<polygon fill="black" stroke="black" points="799.24,-170.5 809.24,-167 799.24,-163.5 799.24,-170.5"/>
</g>
<!-- ResumesModule -->
<g id="node11" class="node">
<title>ResumesModule</title>
<polygon fill="#8dd3c7" stroke="black" points="423.1,-122 420.1,-126 399.1,-126 396.1,-122 312.9,-122 312.9,-86 423.1,-86 423.1,-122"/>
<text text-anchor="middle" x="368" y="-99.8" font-family="Times,serif" font-size="14.00">ResumesModule</text>
</g>
<!-- ResumesModule&#45;&gt;AppModule -->
<g id="edge11" class="edge">
<title>ResumesModule&#45;&gt;AppModule</title>
<path fill="none" stroke="black" d="M368,-122.22C368,-142.37 368,-172 368,-172 368,-172 798.98,-172 798.98,-172"/>
<polygon fill="black" stroke="black" points="798.98,-175.5 808.98,-172 798.98,-168.5 798.98,-175.5"/>
</g>
<!-- AppService -->
<g id="node13" class="node">
<title>AppService</title>
<ellipse fill="#fdb462" stroke="black" cx="232" cy="-104" rx="56.74" ry="18"/>
<text text-anchor="middle" x="232" y="-99.8" font-family="Times,serif" font-size="14.00">AppService</text>
</g>
<!-- AppService&#45;&gt;AppModule -->
<g id="edge12" class="edge">
<title>AppService&#45;&gt;AppModule</title>
<path fill="none" stroke="black" d="M232,-122.04C232,-143.66 232,-177 232,-177 232,-177 798.94,-177 798.94,-177"/>
<polygon fill="black" stroke="black" points="798.94,-180.5 808.94,-177 798.94,-173.5 798.94,-180.5"/>
</g>
<!-- PrismaService -->
<g id="node14" class="node">
<title>PrismaService</title>
<ellipse fill="#fdb462" stroke="black" cx="91" cy="-104" rx="66.63" ry="18"/>
<text text-anchor="middle" x="91" y="-99.8" font-family="Times,serif" font-size="14.00">PrismaService</text>
</g>
<!-- PrismaService&#45;&gt;AppModule -->
<g id="edge13" class="edge">
<title>PrismaService&#45;&gt;AppModule</title>
<path fill="none" stroke="black" d="M91,-122.09C91,-145.13 91,-182 91,-182 91,-182 799.33,-182 799.33,-182"/>
<polygon fill="black" stroke="black" points="799.33,-185.5 809.33,-182 799.33,-178.5 799.33,-185.5"/>
</g>
</g>
</svg>
