<?xml version="1.0" encoding="UTF-8" standalone="no"?>
<!DOCTYPE svg PUBLIC "-//W3C//DTD SVG 1.1//EN"
 "http://www.w3.org/Graphics/SVG/1.1/DTD/svg11.dtd">
<!-- Generated by graphviz version 2.47.0 (20210316.0004)
 -->
<!-- Title: dependencies Pages: 1 -->
<svg width="504pt" height="211pt"
 viewBox="0.00 0.00 504.00 211.00" xmlns="http://www.w3.org/2000/svg" xmlns:xlink="http://www.w3.org/1999/xlink">
<g id="graph0" class="graph" transform="scale(1 1) rotate(0) translate(4 207)">
<title>dependencies</title>
<polygon fill="white" stroke="transparent" points="-4,4 -4,-207 500,-207 500,4 -4,4"/>
<text text-anchor="start" x="227.01" y="-42.4" font-family="Times-12" font-weight="bold" font-size="14.00">Legend</text>
<polygon fill="#ffffb3" stroke="transparent" points="14,-10 14,-30 34,-30 34,-10 14,-10"/>
<text text-anchor="start" x="37.63" y="-15.4" font-family="Times-12" font-size="14.00"> &#160;Declarations</text>
<polygon fill="#8dd3c7" stroke="transparent" points="127,-10 127,-30 147,-30 147,-10 127,-10"/>
<text text-anchor="start" x="150.73" y="-15.4" font-family="Times-12" font-size="14.00"> &#160;Module</text>
<polygon fill="#80b1d3" stroke="transparent" points="213,-10 213,-30 233,-30 233,-10 213,-10"/>
<text text-anchor="start" x="236.78" y="-15.4" font-family="Times-12" font-size="14.00"> &#160;Bootstrap</text>
<polygon fill="#fdb462" stroke="transparent" points="310,-10 310,-30 330,-30 330,-10 310,-10"/>
<text text-anchor="start" x="333.67" y="-15.4" font-family="Times-12" font-size="14.00"> &#160;Providers</text>
<polygon fill="#fb8072" stroke="transparent" points="406,-10 406,-30 426,-30 426,-10 406,-10"/>
<text text-anchor="start" x="429.73" y="-15.4" font-family="Times-12" font-size="14.00"> &#160;Exports</text>
<g id="clust1" class="cluster">
<title>cluster_ImagesModule</title>
<polygon fill="none" stroke="black" stroke-dasharray="1,5" points="33,-70 33,-195 463,-195 463,-70 33,-70"/>
</g>
<g id="clust6" class="cluster">
<title>cluster_ImagesModule_providers</title>
<polygon fill="none" stroke="black" points="151,-78 151,-130 455,-130 455,-78 151,-78"/>
</g>
<g id="clust3" class="cluster">
<title>cluster_ImagesModule_imports</title>
<polygon fill="none" stroke="black" points="41,-78 41,-130 143,-130 143,-78 41,-78"/>
</g>
<!-- FilerModule -->
<g id="node1" class="node">
<title>FilerModule</title>
<polygon fill="#8dd3c7" stroke="black" points="134.99,-122 131.99,-126 110.99,-126 107.99,-122 49.01,-122 49.01,-86 134.99,-86 134.99,-122"/>
<text text-anchor="middle" x="92" y="-99.8" font-family="Times,serif" font-size="14.00">FilerModule</text>
</g>
<!-- ImagesModule -->
<g id="node2" class="node">
<title>ImagesModule</title>
<polygon fill="#8dd3c7" stroke="black" points="275.97,-187 272.97,-191 251.97,-191 248.97,-187 176.03,-187 176.03,-151 275.97,-151 275.97,-187"/>
<text text-anchor="middle" x="226" y="-164.8" font-family="Times,serif" font-size="14.00">ImagesModule</text>
</g>
<!-- FilerModule&#45;&gt;ImagesModule -->
<g id="edge1" class="edge">
<title>FilerModule&#45;&gt;ImagesModule</title>
<path fill="none" stroke="black" d="M92,-122.11C92,-141.34 92,-169 92,-169 92,-169 165.72,-169 165.72,-169"/>
<polygon fill="black" stroke="black" points="165.72,-172.5 175.72,-169 165.72,-165.5 165.72,-172.5"/>
</g>
<!-- ImagesService -->
<g id="node3" class="node">
<title>ImagesService</title>
<ellipse fill="#fdb462" stroke="black" cx="379" cy="-104" rx="67.75" ry="18"/>
<text text-anchor="middle" x="379" y="-99.8" font-family="Times,serif" font-size="14.00">ImagesService</text>
</g>
<!-- ImagesService&#45;&gt;ImagesModule -->
<g id="edge2" class="edge">
<title>ImagesService&#45;&gt;ImagesModule</title>
<path fill="none" stroke="black" d="M379,-122.11C379,-141.34 379,-169 379,-169 379,-169 286.1,-169 286.1,-169"/>
<polygon fill="black" stroke="black" points="286.1,-165.5 276.1,-169 286.1,-172.5 286.1,-165.5"/>
</g>
<!-- PrismaService -->
<g id="node4" class="node">
<title>PrismaService</title>
<ellipse fill="#fdb462" stroke="black" cx="226" cy="-104" rx="66.63" ry="18"/>
<text text-anchor="middle" x="226" y="-99.8" font-family="Times,serif" font-size="14.00">PrismaService</text>
</g>
<!-- PrismaService&#45;&gt;ImagesModule -->
<g id="edge3" class="edge">
<title>PrismaService&#45;&gt;ImagesModule</title>
<path fill="none" stroke="black" d="M226,-122.11C226,-122.11 226,-140.99 226,-140.99"/>
<polygon fill="black" stroke="black" points="222.5,-140.99 226,-150.99 229.5,-140.99 222.5,-140.99"/>
</g>
</g>
</svg>
