<?xml version="1.0" encoding="UTF-8" standalone="no"?>
<!DOCTYPE svg PUBLIC "-//W3C//DTD SVG 1.1//EN"
 "http://www.w3.org/Graphics/SVG/1.1/DTD/svg11.dtd">
<!-- Generated by graphviz version 2.47.0 (20210316.0004)
 -->
<!-- Title: dependencies Pages: 1 -->
<svg width="797pt" height="211pt"
 viewBox="0.00 0.00 797.00 211.00" xmlns="http://www.w3.org/2000/svg" xmlns:xlink="http://www.w3.org/1999/xlink">
<g id="graph0" class="graph" transform="scale(1 1) rotate(0) translate(4 207)">
<title>dependencies</title>
<polygon fill="white" stroke="transparent" points="-4,4 -4,-207 793,-207 793,4 -4,4"/>
<text text-anchor="start" x="373.51" y="-42.4" font-family="Times-12" font-weight="bold" font-size="14.00">Legend</text>
<polygon fill="#ffffb3" stroke="transparent" points="160.5,-10 160.5,-30 180.5,-30 180.5,-10 160.5,-10"/>
<text text-anchor="start" x="184.13" y="-15.4" font-family="Times-12" font-size="14.00"> &#160;Declarations</text>
<polygon fill="#8dd3c7" stroke="transparent" points="273.5,-10 273.5,-30 293.5,-30 293.5,-10 273.5,-10"/>
<text text-anchor="start" x="297.23" y="-15.4" font-family="Times-12" font-size="14.00"> &#160;Module</text>
<polygon fill="#80b1d3" stroke="transparent" points="359.5,-10 359.5,-30 379.5,-30 379.5,-10 359.5,-10"/>
<text text-anchor="start" x="383.28" y="-15.4" font-family="Times-12" font-size="14.00"> &#160;Bootstrap</text>
<polygon fill="#fdb462" stroke="transparent" points="456.5,-10 456.5,-30 476.5,-30 476.5,-10 456.5,-10"/>
<text text-anchor="start" x="480.17" y="-15.4" font-family="Times-12" font-size="14.00"> &#160;Providers</text>
<polygon fill="#fb8072" stroke="transparent" points="552.5,-10 552.5,-30 572.5,-30 572.5,-10 552.5,-10"/>
<text text-anchor="start" x="576.23" y="-15.4" font-family="Times-12" font-size="14.00"> &#160;Exports</text>
<g id="clust1" class="cluster">
<title>cluster_HealthCheckModule</title>
<polygon fill="none" stroke="black" stroke-dasharray="1,5" points="8,-70 8,-195 781,-195 781,-70 8,-70"/>
</g>
<g id="clust6" class="cluster">
<title>cluster_HealthCheckModule_providers</title>
<polygon fill="none" stroke="black" points="16,-78 16,-130 773,-130 773,-78 16,-78"/>
</g>
<!-- CpuHealthIndicator -->
<g id="node1" class="node">
<title>CpuHealthIndicator</title>
<ellipse fill="#fdb462" stroke="black" cx="677" cy="-104" rx="87.96" ry="18"/>
<text text-anchor="middle" x="677" y="-99.8" font-family="Times,serif" font-size="14.00">CpuHealthIndicator</text>
</g>
<!-- HealthCheckModule -->
<g id="node5" class="node">
<title>HealthCheckModule</title>
<polygon fill="#8dd3c7" stroke="black" points="443.13,-187 440.13,-191 419.13,-191 416.13,-187 310.87,-187 310.87,-151 443.13,-151 443.13,-187"/>
<text text-anchor="middle" x="377" y="-164.8" font-family="Times,serif" font-size="14.00">HealthCheckModule</text>
</g>
<!-- CpuHealthIndicator&#45;&gt;HealthCheckModule -->
<g id="edge1" class="edge">
<title>CpuHealthIndicator&#45;&gt;HealthCheckModule</title>
<path fill="none" stroke="black" d="M677,-122.11C677,-141.34 677,-169 677,-169 677,-169 453.21,-169 453.21,-169"/>
<polygon fill="black" stroke="black" points="453.21,-165.5 443.21,-169 453.21,-172.5 453.21,-165.5"/>
</g>
<!-- HealthCheckService -->
<g id="node2" class="node">
<title>HealthCheckService</title>
<ellipse fill="#fdb462" stroke="black" cx="481" cy="-104" rx="90.31" ry="18"/>
<text text-anchor="middle" x="481" y="-99.8" font-family="Times,serif" font-size="14.00">HealthCheckService</text>
</g>
<!-- HealthCheckService&#45;&gt;HealthCheckModule -->
<g id="edge2" class="edge">
<title>HealthCheckService&#45;&gt;HealthCheckModule</title>
<path fill="none" stroke="black" d="M416.96,-116.84C416.96,-116.84 416.96,-140.52 416.96,-140.52"/>
<polygon fill="black" stroke="black" points="413.46,-140.52 416.96,-150.52 420.46,-140.52 413.46,-140.52"/>
</g>
<!-- PrismaHealthIndicator -->
<g id="node3" class="node">
<title>PrismaHealthIndicator</title>
<ellipse fill="#fdb462" stroke="black" cx="274" cy="-104" rx="98.41" ry="18"/>
<text text-anchor="middle" x="274" y="-99.8" font-family="Times,serif" font-size="14.00">PrismaHealthIndicator</text>
</g>
<!-- PrismaHealthIndicator&#45;&gt;HealthCheckModule -->
<g id="edge3" class="edge">
<title>PrismaHealthIndicator&#45;&gt;HealthCheckModule</title>
<path fill="none" stroke="black" d="M341.57,-117.15C341.57,-117.15 341.57,-140.69 341.57,-140.69"/>
<polygon fill="black" stroke="black" points="338.07,-140.69 341.57,-150.69 345.07,-140.69 338.07,-140.69"/>
</g>
<!-- PrismaService -->
<g id="node4" class="node">
<title>PrismaService</title>
<ellipse fill="#fdb462" stroke="black" cx="91" cy="-104" rx="66.63" ry="18"/>
<text text-anchor="middle" x="91" y="-99.8" font-family="Times,serif" font-size="14.00">PrismaService</text>
</g>
<!-- PrismaService&#45;&gt;HealthCheckModule -->
<g id="edge4" class="edge">
<title>PrismaService&#45;&gt;HealthCheckModule</title>
<path fill="none" stroke="black" d="M91,-122.11C91,-141.34 91,-169 91,-169 91,-169 300.67,-169 300.67,-169"/>
<polygon fill="black" stroke="black" points="300.67,-172.5 310.67,-169 300.67,-165.5 300.67,-172.5"/>
</g>
</g>
</svg>
