<?xml version="1.0" encoding="UTF-8" standalone="no"?>
<!DOCTYPE svg PUBLIC "-//W3C//DTD SVG 1.1//EN"
 "http://www.w3.org/Graphics/SVG/1.1/DTD/svg11.dtd">
<!-- Generated by graphviz version 2.47.0 (20210316.0004)
 -->
<!-- Title: dependencies Pages: 1 -->
<svg width="945pt" height="211pt"
 viewBox="0.00 0.00 945.00 211.00" xmlns="http://www.w3.org/2000/svg" xmlns:xlink="http://www.w3.org/1999/xlink">
<g id="graph0" class="graph" transform="scale(1 1) rotate(0) translate(4 207)">
<title>dependencies</title>
<polygon fill="white" stroke="transparent" points="-4,4 -4,-207 941,-207 941,4 -4,4"/>
<text text-anchor="start" x="447.51" y="-42.4" font-family="Times-12" font-weight="bold" font-size="14.00">Legend</text>
<polygon fill="#ffffb3" stroke="transparent" points="234.5,-10 234.5,-30 254.5,-30 254.5,-10 234.5,-10"/>
<text text-anchor="start" x="258.13" y="-15.4" font-family="Times-12" font-size="14.00"> &#160;Declarations</text>
<polygon fill="#8dd3c7" stroke="transparent" points="347.5,-10 347.5,-30 367.5,-30 367.5,-10 347.5,-10"/>
<text text-anchor="start" x="371.23" y="-15.4" font-family="Times-12" font-size="14.00"> &#160;Module</text>
<polygon fill="#80b1d3" stroke="transparent" points="433.5,-10 433.5,-30 453.5,-30 453.5,-10 433.5,-10"/>
<text text-anchor="start" x="457.28" y="-15.4" font-family="Times-12" font-size="14.00"> &#160;Bootstrap</text>
<polygon fill="#fdb462" stroke="transparent" points="530.5,-10 530.5,-30 550.5,-30 550.5,-10 530.5,-10"/>
<text text-anchor="start" x="554.17" y="-15.4" font-family="Times-12" font-size="14.00"> &#160;Providers</text>
<polygon fill="#fb8072" stroke="transparent" points="626.5,-10 626.5,-30 646.5,-30 646.5,-10 626.5,-10"/>
<text text-anchor="start" x="650.23" y="-15.4" font-family="Times-12" font-size="14.00"> &#160;Exports</text>
<g id="clust1" class="cluster">
<title>cluster_ProfileModule</title>
<polygon fill="none" stroke="black" stroke-dasharray="1,5" points="8,-70 8,-195 929,-195 929,-70 8,-70"/>
</g>
<g id="clust6" class="cluster">
<title>cluster_ProfileModule_providers</title>
<polygon fill="none" stroke="black" points="126,-78 126,-130 921,-130 921,-78 126,-78"/>
</g>
<g id="clust3" class="cluster">
<title>cluster_ProfileModule_imports</title>
<polygon fill="none" stroke="black" points="16,-78 16,-130 118,-130 118,-78 16,-78"/>
</g>
<!-- FilerModule -->
<g id="node1" class="node">
<title>FilerModule</title>
<polygon fill="#8dd3c7" stroke="black" points="109.99,-122 106.99,-126 85.99,-126 82.99,-122 24.01,-122 24.01,-86 109.99,-86 109.99,-122"/>
<text text-anchor="middle" x="67" y="-99.8" font-family="Times,serif" font-size="14.00">FilerModule</text>
</g>
<!-- ProfileModule -->
<g id="node2" class="node">
<title>ProfileModule</title>
<polygon fill="#8dd3c7" stroke="black" points="491.65,-187 488.65,-191 467.65,-191 464.65,-187 394.35,-187 394.35,-151 491.65,-151 491.65,-187"/>
<text text-anchor="middle" x="443" y="-164.8" font-family="Times,serif" font-size="14.00">ProfileModule</text>
</g>
<!-- FilerModule&#45;&gt;ProfileModule -->
<g id="edge1" class="edge">
<title>FilerModule&#45;&gt;ProfileModule</title>
<path fill="none" stroke="black" d="M67,-122.28C67,-143.32 67,-175 67,-175 67,-175 384.23,-175 384.23,-175"/>
<polygon fill="black" stroke="black" points="384.23,-178.5 394.23,-175 384.23,-171.5 384.23,-178.5"/>
</g>
<!-- ActivitiesService -->
<g id="node3" class="node">
<title>ActivitiesService</title>
<ellipse fill="#fdb462" stroke="black" cx="835" cy="-104" rx="77.58" ry="18"/>
<text text-anchor="middle" x="835" y="-99.8" font-family="Times,serif" font-size="14.00">ActivitiesService</text>
</g>
<!-- ActivitiesService&#45;&gt;ProfileModule -->
<g id="edge2" class="edge">
<title>ActivitiesService&#45;&gt;ProfileModule</title>
<path fill="none" stroke="black" d="M835,-122.28C835,-143.32 835,-175 835,-175 835,-175 501.85,-175 501.85,-175"/>
<polygon fill="black" stroke="black" points="501.85,-171.5 491.85,-175 501.85,-178.5 501.85,-171.5"/>
</g>
<!-- ImagesService -->
<g id="node4" class="node">
<title>ImagesService</title>
<ellipse fill="#fdb462" stroke="black" cx="672" cy="-104" rx="67.75" ry="18"/>
<text text-anchor="middle" x="672" y="-99.8" font-family="Times,serif" font-size="14.00">ImagesService</text>
</g>
<!-- ImagesService&#45;&gt;ProfileModule -->
<g id="edge3" class="edge">
<title>ImagesService&#45;&gt;ProfileModule</title>
<path fill="none" stroke="black" d="M672,-122.02C672,-139.37 672,-163 672,-163 672,-163 501.85,-163 501.85,-163"/>
<polygon fill="black" stroke="black" points="501.85,-159.5 491.85,-163 501.85,-166.5 501.85,-159.5"/>
</g>
<!-- PrismaService -->
<g id="node5" class="node">
<title>PrismaService</title>
<ellipse fill="#fdb462" stroke="black" cx="519" cy="-104" rx="66.63" ry="18"/>
<text text-anchor="middle" x="519" y="-99.8" font-family="Times,serif" font-size="14.00">PrismaService</text>
</g>
<!-- PrismaService&#45;&gt;ProfileModule -->
<g id="edge4" class="edge">
<title>PrismaService&#45;&gt;ProfileModule</title>
<path fill="none" stroke="black" d="M472.01,-116.84C472.01,-116.84 472.01,-140.52 472.01,-140.52"/>
<polygon fill="black" stroke="black" points="468.51,-140.52 472.01,-150.52 475.51,-140.52 468.51,-140.52"/>
</g>
<!-- ProfileService -->
<g id="node6" class="node">
<title>ProfileService</title>
<ellipse fill="#fdb462" stroke="black" cx="368" cy="-104" rx="66.05" ry="18"/>
<text text-anchor="middle" x="368" y="-99.8" font-family="Times,serif" font-size="14.00">ProfileService</text>
</g>
<!-- ProfileService&#45;&gt;ProfileModule -->
<g id="edge5" class="edge">
<title>ProfileService&#45;&gt;ProfileModule</title>
<path fill="none" stroke="black" d="M414.22,-117.15C414.22,-117.15 414.22,-140.69 414.22,-140.69"/>
<polygon fill="black" stroke="black" points="410.72,-140.69 414.22,-150.69 417.72,-140.69 410.72,-140.69"/>
</g>
<!-- ResumesService -->
<g id="node7" class="node">
<title>ResumesService</title>
<ellipse fill="#fdb462" stroke="black" cx="209" cy="-104" rx="74.71" ry="18"/>
<text text-anchor="middle" x="209" y="-99.8" font-family="Times,serif" font-size="14.00">ResumesService</text>
</g>
<!-- ResumesService&#45;&gt;ProfileModule -->
<g id="edge6" class="edge">
<title>ResumesService&#45;&gt;ProfileModule</title>
<path fill="none" stroke="black" d="M209,-122.02C209,-139.37 209,-163 209,-163 209,-163 384.23,-163 384.23,-163"/>
<polygon fill="black" stroke="black" points="384.23,-166.5 394.23,-163 384.23,-159.5 384.23,-166.5"/>
</g>
</g>
</svg>
